<svg version="1.0" xmlns="http://www.w3.org/2000/svg" width="1325.333" height="1325.333" viewBox="0 0 994 994"><path d="M486.6 3.7c-.3.3-3.3.7-6.8.9-8.3.4-20.3 1.3-25.3 1.9-6.5.8-26.8 3.5-29.5 3.9-1.4.3-4.3.7-6.5 1.1-14.5 2.1-48.7 10.1-71.5 16.7-5.8 1.7-10.9 3.1-11.5 3.2-11.8 2.5-61.9 21.2-66.2 24.7-.7.6-1.3.9-1.3.6 0-.3-3.5 1.1-7.7 3.2-4.3 2.1-9.4 4.5-11.3 5.3-14.6 6.4-14.9 6.6-21.8 12.6-1.5 1.3-4.4 3.2-6.4 4.3-2.1 1.1-3.8 2.3-3.8 2.7-.1.4-2.5 2.3-5.5 4.2-3 1.9-5.5 4-5.5 4.5 0 .6-.8 1.5-1.9 2-1 .6-4.3 2.9-7.2 5.3-3 2.4-6.7 5.4-8.4 6.7-2.4 1.9-21.1 20.4-43.6 43.4-1.9 2-7 7.6-11.3 12.6-4.2 4.9-8.4 9.9-9.4 11-.9 1.1-3.4 4.4-5.6 7.3-2.1 2.9-4.7 5.7-5.7 6.3-1.1.5-1.7 1.4-1.4 1.8.3.5-.2 1.1-1 1.5-.8.3-1.5 1.2-1.5 2s-.9 1.8-2.1 2.1c-1.1.4-1.8.9-1.5 1.2.3.4.1 1.2-.5 2-.6.7-.8 1.3-.4 1.3.5 0-.4 1.1-2 2.4-1.5 1.3-2.5 2.8-2.1 3.4.3.6-.2 1.3-1.2 1.6-1.1.4-3.1 2.9-4.6 5.6-1.5 2.8-3.1 5-3.5 5-.4 0-1.4 1.2-2.2 2.7-.8 1.6-2.4 3.9-3.6 5.3-1.3 1.4-2.3 2.9-2.3 3.3 0 .5-1.8 3.4-4 6.4-2.2 3.1-4 6.2-4 6.8 0 .7-.7 1.8-1.5 2.5-.9.7-1.3 1.5-1.1 1.7.2.3-.4 1.4-1.4 2.6-1.8 2-3.2 4.6-9.5 16.7-2.5 4.7-8.5 17.9-8.5 18.5 0 .2-1.4 3.4-3.1 7-3.2 6.9-6.9 16.9-7.2 19.5-.1.8-.4 1.7-.8 2-.5.5-10.7 31.3-11.3 34.1-.2.8-.6 2.1-.9 2.9-.3.8-1.1 3.5-1.7 6-.6 2.5-3.1 10.4-5.5 17.6-2.5 7.2-4.6 14.4-4.8 16-.2 1.7-.6 3.4-.9 3.9-.6 1.1-4.5 17.8-5 21.5-.2 1.4-.7 3-1 3.6-.4.6-1 2.6-1.2 4.5-.8 4.9-1.1 6.3-1.8 7.4-.4.8-1.5 4.8-2.3 8.5 0 .3-.4 2.1-.8 4s-.9 4.6-1.2 6c-.3 1.4-.8 5.2-1 8.5-.3 3.3-.9 8.5-1.4 11.5-1.9 11.2.2 82.5 2.6 86.3.3.6.7 4.9.8 9.6.1 4.7.5 9.9.9 11.6 1.2 5.4 1.6 7.9 2.2 12 .6 5.3 3.4 15.7 4.4 17 .6.8 2.2 11.2 2.2 14.2 0 .5.4 1.4 1 2 .6.7.8 1.3.4 1.3-.3 0-.1 1.2.5 2.7 1.2 3 1.4 4.1 2.3 9.8.4 2.1 1.1 4.4 1.7 5.2.6.7.9 1.3.6 1.3-.3 0-.1 1.5.4 3.2.6 1.8 1.1 3.7 1.3 4.3.1.5 1.1 3.5 2.1 6.5 1.1 3 1.8 5.8 1.7 6.2-.1.5.3.8.9.8.6 0 .9.7.6 1.5-.4.8-.2 1.7.3 2 .6.4 1 1.4 1 2.3 0 1.7 9.1 20.4 11 22.7.5.6 2.8 4.7 5.1 9 2.3 4.4 5.9 10.5 8 13.7 2.1 3.1 3.9 6.2 3.9 6.8 0 .6.8 2.5 1.7 4.3.9 1.8 1.6 3.5 1.5 3.9-.1.3.5 1.2 1.3 1.8.8.7 1.5 1.8 1.5 2.5 0 1.9 3 7.4 4.8 8.7.9.7 2.8 3.5 4.2 6.3 1.4 2.7 3.2 5.7 4 6.5.8.8 2.1 2.6 2.8 4 1.1 2.2 4.6 7.5 6.9 10.5.5.5 1.4 2.1 2 3.5 1.5 2.9 2 3.8 9.5 15 3.1 4.7 6.9 9.8 8.5 11.5 1.6 1.6 4.4 5 6.3 7.5 1.9 2.5 3.7 4.7 4 5 .3.3 2.3 2.7 4.5 5.5 2.2 2.7 4.3 5.1 4.7 5.3.4.2 3.4 3.1 6.5 6.5 10 10.6 20.7 21.1 24.1 23.7 1.8 1.4 6.2 5.3 9.9 8.7 3.6 3.5 6.9 6 7.4 5.7.5-.3.9-.1.9.5 0 .5 2.1 2.4 4.6 4.2 2.5 1.7 6.1 4.6 8 6.4 1.8 1.8 3.5 3.1 3.7 2.9.2-.2 1.2.5 2.2 1.6 1 1.1 2.4 2 3.1 2 .7 0 1.6.9 1.9 2 .3 1.1 1.1 2.1 1.6 2.1.5.1 1.3.2 1.8.3.5 0 1.3.5 1.8 1s.3.6-.4.2c-2.9-1.6-1.1.4 2 2.2 1.7 1.1 4.1 2.7 5.2 3.6 3.9 3.1 11.5 7.9 38.5 24.3 21.1 12.8 50.7 27.3 75.5 37 2.2.8 5.1 2 6.5 2.6 3 1.3 2.7 1.2 6.5 2.1 1.7.4 3.8 1.1 4.7 1.7 1 .5 2.2.9 2.7.9s2.2.5 3.8 1.2c1.5.6 3.4 1.2 4.2 1.4.8.1 3.6 1 6.4 1.9 4.6 1.5 29.7 8.1 34.2 9.1 1.1.2 8.5 1.7 16.5 3.3 8 1.6 16.3 3.2 18.5 3.5 4.4.6 11.9 1.9 20.7 3.6 3.1.6 6 1 6.5.9.4-.1 1 0 1.3.1 3.2 1.5 37.5 2.2 48 1 9.6-1.1 17.1-1.3 38-1.2 6.3.1 14.2-.1 17.5-.3 13.4-.9 20.8-1.6 21.4-1.9.3-.2 4.7-.9 9.6-1.5 5-.6 10.1-1.3 11.5-1.6 1.4-.3 3.9-.8 5.5-1.1 1.7-.2 5.9-1.1 9.5-1.9 3.6-.8 7.9-1.8 9.5-2.1 4.5-.8 22.8-6.6 24.1-7.5.6-.5 2.8-1.5 5-2.3 2.1-.7 7.3-2.9 11.4-4.9 4.1-1.9 8.6-3.8 10-4.2 1.4-.5 4.1-1.8 6-3 1.9-1.2 5.3-2.9 7.5-3.7 2.2-.9 7.6-3.3 12-5.4 4.4-2.1 8.2-3.9 8.5-3.9 1.7-.3 23.6-12 35.5-18.8 26.4-15.2 49.2-31 70-48.5 1.1-.9 3.8-3.2 6-5.1 13.6-11.4 28.1-25.4 40.5-39 5.2-5.8 10.2-11.2 11-12.1.8-.8 4.6-5.4 8.5-10 3.8-4.7 7.5-9 8.1-9.5.6-.6 3.5-4.2 6.5-8 2.9-3.9 5.9-7.5 6.6-8 1.7-1.5 8.3-10.4 8.3-11.3 0-.7 5.7-9.1 7-10.2.3-.3 2.1-3.7 4-7.5 1.9-3.9 3.7-7.2 4-7.5 1.3-1.3 22-42.3 22-43.5 0-.3 1.6-3.9 3.6-8.2 3.9-8.4 11.4-27.3 14.5-36.8 1-3.3 2.2-6.7 2.5-7.5.3-.8.5-1.6.5-1.7 0-.2.7-2.2 1.5-4.5.9-2.4 1.8-5.4 2-6.7.3-1.3.9-3.1 1.3-4 .5-.9 1.2-3.4 1.6-5.6.5-2.2 1-4.5 1.1-5 2.1-7 4.5-16.7 4.9-19.3.2-1.8.6-3.6.9-4 .2-.4.7-2.5 1-4.7.3-2.2 1.1-6.3 1.6-9 .6-2.8 1.2-6.4 1.4-8 .3-1.7.7-4.7 1-6.8.3-2 .8-5.2 1-7 .3-1.7.7-5.2 1.1-7.7 3.6-25.8 4.2-88.1 1.1-113.5-.2-1.7-.7-5.8-1.1-9.3-.3-3.5-.8-7.3-1.1-8.5-.2-1.2-.7-4.2-1-6.7-1.9-14.6-8.8-46.5-12.8-59.5-.1-.6-.8-3-1.5-5.5s-2-6.5-2.8-9c-1.6-5.2-2-6.2-2.3-7.2-.1-.4-1.3-3.8-2.6-7.5-1.4-3.7-3.2-8.8-4.1-11.3-.8-2.5-1.9-4.9-2.4-5.4-.5-.6-.9-1.5-.9-2.2 0-.7-1-3.4-2.2-6.1-1.2-2.6-2.2-5.1-2.3-5.6-.2-.4-.4-.9-.5-1.2-.1-.3-.3-.8-.4-1.3-1.5-5.8-31.7-62.2-33.8-63-.4-.2-.8-1-.8-1.7 0-.8-.6-2-1.3-2.7-.7-.7-4-5.4-7.3-10.3-7-10.6-15.8-22.6-22.7-31-2.7-3.3-6.6-8-8.6-10.5-2-2.4-6.3-7.4-9.7-11-3.4-3.6-9-9.7-12.5-13.6-3.5-4-8.8-9.3-11.8-12-2.9-2.6-7.8-7.2-11-10.2-7.4-7.2-25-21.9-38.4-32.1-13.2-10-14.6-11.1-16.6-13.4-.8-.9-2.1-1.7-2.8-1.7-.7 0-1.3-.4-1.3-.9s-2.4-2.4-5.2-4.2c-2.9-1.8-5.6-3.8-6-4.4-.4-.5-.8-.7-.8-.3 0 .5-.9-.1-2-1.2-1.1-1.1-2.6-2-3.3-2-.8 0-2.2-.9-3.2-2s-2.2-1.7-2.6-1.4c-.5.3-.9.1-.9-.4 0-.6-1.2-1.3-2.7-1.7-1.6-.3-4.1-1.7-5.8-2.9-4.6-3.4-17.1-9.6-17.9-8.9-.3.3-.6.1-.6-.5 0-.7-.7-1.2-1.5-1.2s-1.5-.4-1.5-.8c0-.6-4-2.7-7-3.6-.3-.1-5.4-2.6-11.5-5.6-6-2.9-11.2-5.4-11.5-5.5-.3 0-2.1-1.1-4-2.3-1.9-1.2-4.3-2.2-5.2-2.2-1 0-1.8-.5-1.8-1.1 0-.5-.4-.8-.9-.4-.5.3-1.2.1-1.5-.4-.4-.5-2.3-1.5-4.4-2.2-2-.6-4.3-1.7-5.1-2.3-.8-.6-2.1-1.1-3-1.1-.9-.1-2.7-.7-3.9-1.4-1.3-.7-3.6-1.5-5-1.7-1.5-.3-6.3-1.7-10.7-3.2-4.4-1.5-8.4-2.7-9-2.7-.5 0-1.6-.4-2.2-.8-.7-.5-1.3-.6-1.3-.3s-1.2.1-2.7-.5c-4.6-1.8-20.3-5.5-27.3-6.5-1.9-.2-4.2-.7-5-.9-.9-.3-5.1-1-9.5-1.5-4.4-.6-12.9-1.7-19-2.5-7.9-1-21.2-1.4-46.7-1.3-19.6 0-35.9.2-36.2.5z"/></svg>